<?xml version="1.0" encoding="utf-8"?>
<!-- Generator: Adobe Illustrator 25.3.0, SVG Export Plug-In . SVG Version: 6.00 Build 0)  -->
<svg version="1.1" xmlns="http://www.w3.org/2000/svg" xmlns:xlink="http://www.w3.org/1999/xlink" x="0px" y="0px"
	 viewBox="0 0 1000 700" style="enable-background:new 0 0 1000 700;" xml:space="preserve">
<style type="text/css">
	.st0{fill:#FFFFFF;}
	.st1{opacity:0.71;clip-path:url(#SVGID_2_);}
	.st2{opacity:0.71;fill:#F2F2F2;}
	.st3{clip-path:url(#SVGID_2_);fill:#EFEFEF;}
	.st4{clip-path:url(#SVGID_2_);fill:#E8E8E8;}
</style>
<g id="Bg">
	<rect transform="matrix(-1 -1.224647e-16 1.224647e-16 -1 1000 700)" class="st0" width="1000" height="700"/>
</g>
<g id="Object">
	<rect transform="matrix(-1 -1.224647e-16 1.224647e-16 -1 1000 700)" class="st0" width="1000" height="700"/>
	<g>
		<defs>
			<rect id="SVGID_1_" width="1000" height="700"/>
		</defs>
		<clipPath id="SVGID_2_">
			<use xlink:href="#SVGID_1_"  style="overflow:visible;"/>
		</clipPath>
		<g class="st1">
			<polygon class="st2" points="991.7,408.8 991.7,362.2 909.9,362.2 909.9,312 804.7,312 804.7,439.2 780.2,439.2 780.2,468.9 
				761.1,468.9 761.1,540.1 738.8,540.1 738.8,442.1 683.5,442.1 683.5,413.5 652.2,413.5 652.2,459.3 623,475.3 623,567.5 
				553.9,567.5 553.9,365.1 479.5,365.1 479.5,403 421,403 405.1,411.7 405.1,432.7 331.8,432.7 318,440.3 318,511.5 287.1,511.5 
				287.1,401.8 229.8,401.8 229.8,421.1 138.9,421.1 138.9,467.4 122.4,476.5 122.4,522 95,522 95,409.6 57.8,401.5 57.8,371.1 
				-42.1,371.1 -42.1,499.5 -51,499.5 -51,773 29.3,773 95,773 281.1,773 281.1,772.7 1022,772.2 1022,425.5 			"/>
		</g>
		<polygon class="st3" points="965.8,442.7 950.7,459.3 950.7,510 934.6,510 934.6,371 862.9,371 862.9,694.9 841.3,671.1 
			841.3,484.7 681.7,484.7 681.7,532.1 597.3,532.1 597.3,681.1 597.3,746.7 523.2,746.7 523.2,552.9 501.8,552.9 501.8,477.6 
			457.9,477.6 457.9,602.4 437.5,602.4 437.5,626 411.8,581.2 366.8,581.2 366.8,419.9 280,419.9 272.5,428.1 272.5,477.6 
			272.5,532.9 247.9,532.9 247.9,385.7 174,385.7 174,410.5 159.5,426.3 159.5,677.2 142.9,677.2 142.9,475.8 133.3,475.8 
			133.3,456.4 48.1,456.4 33.6,472.3 33.6,494.7 -46.7,494.7 -51,780.2 216.8,780.2 216.8,779.6 489,779.6 489,780.2 597.3,780.2 
			753.6,780.2 1030,780.2 1030,442.7 		"/>
		<polygon class="st4" points="1029.6,463.5 1029.6,664.7 1003.6,664.7 1003.6,584.6 966.8,553.4 966.8,432.3 920.3,432.3 
			893.2,409.3 858.6,409.3 858.6,531.4 775.3,531.4 775.3,670 753.6,670 753.6,476.3 693,503 693,618.6 676.8,618.6 676.8,440.5 
			656.2,440.5 656.2,388.2 635.7,388.2 635.7,376.3 627,376.3 627,386.4 576.2,386.4 576.2,426.8 528.5,426.8 516.6,440.5 
			516.6,605.7 476.1,605.7 476.1,572.2 450.6,550.7 450.6,471.8 361.9,471.8 361.9,536.9 329.4,536.9 329.4,592 290.5,628.7 
			265.6,628.7 265.6,454.3 196.3,413.9 196.3,575.5 180.1,575.5 180.1,464.4 97.9,464.4 97.9,503 60,503 60,687.4 43.8,687.4 
			43.8,607.6 -11.4,607.6 -11.4,582.8 -21.2,570.9 -80.7,570.9 -85,893 942.1,893 1003.6,893 1029.6,893 1100,893 1100,463.5 		"/>
	</g>
</g>
</svg>
